<?xml version="1.0" standalone="no"?>
<!DOCTYPE svg PUBLIC "-//W3C//DTD SVG 20010904//EN"
 "http://www.w3.org/TR/2001/REC-SVG-20010904/DTD/svg10.dtd">
<svg version="1.0" xmlns="http://www.w3.org/2000/svg"
 width="700.000000pt" height="700.000000pt" viewBox="0 0 700.000000 700.000000"
 preserveAspectRatio="xMidYMid meet">
<metadata>
Created by potrace 1.14, written by Peter Selinger 2001-2017
</metadata>
<g transform="translate(0.000000,700.000000) scale(0.100000,-0.100000)"
fill="#000000" stroke="none">
<path d="M3038 6070 c-165 -30 -262 -55 -436 -115 -720 -246 -1288 -755 -1629
-1460 -24 -49 -48 -98 -53 -107 -26 -47 -121 -303 -136 -369 -3 -13 -8 -34
-11 -46 -4 -17 0 -23 20 -28 34 -9 44 -1 53 38 38 174 199 534 344 764 334
533 805 916 1390 1130 110 40 85 32 275 82 141 36 173 43 285 56 87 11 92 13
88 43 -3 24 -7 27 -43 29 -22 1 -88 -7 -147 -17z"/>
<path d="M3448 6084 c-12 -12 -9 -40 5 -52 6 -5 68 -13 136 -17 68 -4 132 -8
140 -10 9 -2 44 -6 76 -10 66 -7 97 -12 135 -20 14 -3 39 -7 55 -10 85 -13
310 -82 413 -126 24 -11 52 -19 62 -19 22 0 42 30 32 47 -9 14 -191 87 -272
108 -8 3 -31 9 -50 14 -101 29 -169 44 -275 61 -174 27 -444 48 -457 34z"/>
<path d="M3340 5857 c-3 -3 -40 -8 -82 -11 -43 -3 -83 -8 -90 -11 -7 -2 -31
-6 -53 -9 -22 -2 -83 -14 -135 -26 -52 -12 -104 -23 -114 -25 -55 -12 -233
-72 -321 -108 -544 -221 -981 -652 -1293 -1272 -141 -281 -237 -544 -359 -985
-75 -271 -187 -501 -331 -680 -109 -135 -276 -276 -411 -348 -97 -52 -115 -71
-106 -111 8 -37 28 -54 63 -53 15 0 99 26 187 57 88 30 250 86 360 124 110 38
292 101 405 140 113 39 210 71 215 71 6 0 36 -53 67 -118 88 -181 159 -292
283 -447 373 -461 916 -767 1490 -841 28 -3 53 -8 57 -11 20 -11 395 -10 508
2 425 46 813 201 1167 467 112 84 326 292 398 388 27 36 52 67 55 70 16 13
143 215 188 300 138 258 227 551 259 855 14 133 7 462 -12 568 -3 15 -7 39
-10 55 -3 15 -8 43 -11 62 -3 19 -13 67 -23 105 l-18 71 56 18 c31 10 144 48
251 85 107 38 222 77 255 88 33 12 179 62 325 113 146 51 272 94 281 97 26 8
48 55 38 82 -17 43 -37 50 -124 44 -147 -11 -357 -5 -447 12 -12 3 -40 7 -63
11 -132 19 -347 84 -491 148 -155 68 -253 130 -494 309 -456 340 -766 515
-1095 618 -123 38 -221 61 -315 74 -30 4 -64 10 -75 12 -26 6 -429 15 -435 10z"/>
<path d="M4675 5770 c-9 -28 -1 -37 58 -66 127 -64 302 -181 385 -256 35 -32
45 -37 62 -28 11 6 20 18 20 26 0 43 -194 187 -404 301 -88 48 -112 52 -121
23z"/>
<path d="M5828 5707 c-186 -68 -206 -319 -33 -417 62 -36 159 -33 222 6 133
83 148 268 30 369 -56 48 -153 67 -219 42z"/>
<path d="M5417 5283 c-13 -12 -7 -46 11 -60 62 -51 270 -180 365 -226 204
-101 458 -169 714 -193 65 -6 72 -4 82 14 15 29 -10 52 -57 53 -41 1 -62 4
-177 24 -244 44 -372 83 -535 165 -128 64 -190 101 -287 171 -78 56 -102 67
-116 52z"/>
<path d="M5910 4145 c-9 -10 -9 -28 -1 -67 10 -49 21 -111 25 -148 2 -8 6 -43
10 -77 10 -75 24 -98 54 -89 15 5 22 15 22 34 0 42 -48 321 -59 339 -11 21
-37 25 -51 8z"/>
<path d="M734 3752 c-7 -4 -28 -63 -48 -132 -21 -69 -53 -170 -73 -224 -34
-93 -35 -100 -19 -112 14 -9 23 -10 36 -2 24 15 90 196 140 383 4 17 11 37 14
46 4 10 0 23 -9 33 -18 18 -25 19 -41 8z"/>
<path d="M5984 3569 c-8 -13 -10 -43 -18 -204 -4 -66 -8 -133 -10 -150 -3 -16
-7 -57 -11 -90 -20 -205 -69 -398 -145 -580 -39 -93 -117 -248 -156 -312 -46
-75 -92 -143 -131 -196 -41 -57 -46 -80 -17 -91 21 -8 37 1 64 40 14 19 34 47
46 62 129 167 323 586 358 772 2 14 11 59 20 100 8 41 18 99 21 129 4 30 8 61
10 70 3 15 12 127 20 242 7 112 8 196 1 207 -9 15 -43 15 -52 1z"/>
<path d="M533 3162 c-6 -4 -21 -32 -33 -62 -25 -65 -89 -187 -116 -221 -41
-52 -138 -139 -204 -184 -71 -47 -75 -51 -64 -79 10 -27 39 -18 116 33 88 60
174 143 223 216 58 89 125 233 125 271 0 17 -33 35 -47 26z"/>
<path d="M1135 2306 c-17 -12 -17 -16 -5 -46 13 -31 144 -242 169 -272 6 -7
48 -60 93 -118 79 -100 291 -319 374 -386 312 -253 587 -402 920 -497 148 -42
200 -54 364 -77 219 -32 486 -32 705 -1 155 22 152 22 303 60 321 82 631 223
895 408 78 55 101 81 89 99 -17 25 -42 22 -84 -10 -143 -109 -357 -231 -528
-300 -36 -15 -74 -31 -85 -36 -51 -23 -308 -101 -375 -113 -14 -3 -36 -8 -50
-11 -14 -3 -36 -8 -50 -10 -14 -2 -41 -7 -60 -10 -80 -14 -99 -16 -180 -23
-180 -15 -442 -7 -600 18 -130 20 -160 26 -270 56 -347 92 -682 269 -960 507
-96 82 -314 314 -387 411 -46 61 -86 115 -91 120 -10 14 -91 142 -124 199 -30
50 -35 53 -63 32z"/>
<path d="M705 1873 c-22 -7 -61 -28 -86 -45 -165 -112 -181 -361 -33 -498 67
-62 123 -83 219 -84 96 -1 166 27 230 91 63 63 88 123 91 218 3 68 0 88 -21
132 -34 75 -63 110 -120 147 -87 57 -188 71 -280 39z"/>
<path d="M5238 1705 c-87 -83 -105 -116 -72 -129 22 -9 53 13 137 94 54 52 68
72 65 91 -6 47 -39 33 -130 -56z"/>
</g>
</svg>
