<?xml version="1.0" standalone="no"?>
<!DOCTYPE svg PUBLIC "-//W3C//DTD SVG 20010904//EN"
 "http://www.w3.org/TR/2001/REC-SVG-20010904/DTD/svg10.dtd">
<svg version="1.0" xmlns="http://www.w3.org/2000/svg"
 width="1024.000000pt" height="1024.000000pt" viewBox="0 0 1024.000000 1024.000000"
 preserveAspectRatio="xMidYMid meet">
<metadata>
Created by potrace 1.14, written by Peter Selinger 2001-2017
</metadata>
<g transform="translate(0.000000,1024.000000) scale(0.100000,-0.100000)"
fill="#000000" stroke="none">
<path d="M5989 9966 c-87 -30 -151 -89 -186 -171 -30 -69 -27 -181 5 -244 18
-34 138 -181 173 -211 3 -3 48 -59 100 -125 298 -376 518 -761 635 -1109 19
-55 34 -102 34 -103 0 -2 -19 9 -42 25 -262 180 -622 344 -957 437 -93 26 -97
28 -190 114 -286 260 -534 444 -796 586 -82 45 -302 155 -309 155 -3 0 -29 11
-58 24 -107 50 -438 172 -518 191 -8 2 -54 15 -102 29 -84 25 -278 74 -328 83
-14 2 -40 8 -58 13 -56 15 -153 6 -200 -19 -168 -87 -204 -291 -78 -438 34
-39 107 -70 236 -97 349 -75 707 -200 1022 -357 116 -57 311 -169 306 -175 -3
-3 -41 -7 -162 -20 -33 -3 -69 -8 -80 -10 -12 -2 -50 -9 -86 -14 -36 -6 -96
-17 -135 -26 -38 -9 -79 -17 -89 -20 -55 -11 -291 -83 -341 -105 -11 -4 -72
-29 -135 -54 -105 -43 -305 -141 -390 -193 -19 -12 -43 -19 -55 -17 -71 15
-316 29 -515 29 -220 0 -396 -14 -570 -44 -30 -5 -71 -12 -90 -15 -99 -16
-369 -79 -475 -112 -254 -77 -528 -180 -691 -258 -72 -35 -99 -54 -123 -87
-127 -172 -10 -403 202 -400 36 0 74 8 100 21 63 30 205 91 262 111 28 10 88
33 135 50 149 54 440 137 580 164 14 2 48 9 75 15 82 16 254 40 340 46 199 16
202 15 139 -46 -42 -40 -156 -167 -199 -223 -16 -21 -35 -44 -40 -50 -27 -29
-159 -222 -215 -315 -60 -99 -190 -350 -190 -365 0 -4 -11 -32 -25 -62 -14
-30 -25 -58 -25 -62 0 -5 -57 -44 -127 -87 -146 -90 -297 -194 -398 -274 -193
-153 -436 -393 -606 -601 -29 -36 -55 -67 -59 -70 -3 -3 -25 -32 -50 -65 -24
-33 -48 -64 -52 -70 -43 -53 -278 -400 -278 -410 0 -2 -19 -36 -43 -77 -70
-121 -85 -161 -81 -223 6 -98 59 -183 142 -232 41 -25 57 -28 132 -28 74 0 91
3 131 27 61 36 85 66 182 231 131 220 300 453 476 657 115 133 403 410 427
410 2 0 2 -21 -1 -47 -23 -192 -18 -587 9 -730 2 -10 7 -40 10 -68 10 -70 15
-100 32 -180 8 -38 17 -80 20 -93 6 -31 50 -189 65 -234 11 -33 9 -42 -16 -95
-122 -255 -265 -646 -300 -821 -2 -9 -10 -48 -19 -86 -9 -39 -19 -84 -21 -100
-2 -17 -9 -54 -14 -83 -6 -28 -13 -77 -16 -108 -4 -31 -8 -66 -11 -78 -2 -12
-6 -53 -10 -92 -3 -38 -9 -110 -14 -160 -7 -86 -5 -682 4 -755 2 -19 7 -69 11
-110 8 -79 9 -88 20 -135 20 -80 82 -154 165 -196 64 -32 175 -32 247 0 79 35
148 119 170 206 6 26 5 133 -2 165 -19 92 -28 687 -12 850 12 121 26 240 32
260 2 8 6 35 9 61 3 25 7 52 10 60 3 7 8 31 11 53 3 21 7 41 9 45 2 3 7 22 10
42 3 20 22 89 42 155 20 65 39 127 41 137 8 26 15 21 45 -25 98 -154 241 -329
396 -485 96 -97 274 -255 339 -301 18 -13 35 -33 38 -45 2 -12 14 -71 25 -132
11 -60 22 -121 25 -135 3 -14 8 -38 12 -55 4 -16 7 -32 8 -35 36 -182 143
-513 224 -697 71 -162 251 -504 293 -558 4 -5 40 -59 79 -120 129 -199 339
-468 488 -627 95 -102 169 -140 268 -140 93 0 167 29 228 90 69 67 98 136 98
231 1 98 -28 163 -110 252 -263 283 -529 673 -696 1019 -91 190 -210 517 -183
506 101 -43 469 -146 576 -161 24 -4 47 -8 50 -10 3 -1 30 -6 61 -9 31 -4 65
-8 75 -10 17 -3 68 -8 226 -21 56 -5 59 -7 125 -77 173 -183 390 -389 564
-534 74 -61 256 -195 339 -249 85 -56 125 -80 225 -137 57 -33 339 -170 409
-200 275 -114 583 -215 836 -273 223 -51 237 -53 311 -42 203 29 340 238 284
433 -39 138 -146 234 -285 258 -68 11 -93 17 -223 51 -174 45 -393 114 -492
154 -11 5 -67 28 -125 51 -128 52 -350 162 -445 220 -71 43 -206 131 -215 140
-3 3 -39 30 -80 61 -41 31 -85 65 -96 75 -12 11 -41 35 -65 55 -90 76 -111 96
-103 101 5 2 29 10 54 17 246 70 465 155 656 255 l101 53 164 -38 c90 -21 175
-40 189 -43 14 -2 90 -16 170 -30 181 -31 240 -40 350 -51 36 -4 79 -9 95 -11
154 -19 608 -26 745 -11 36 4 90 9 120 13 30 3 80 9 110 14 30 5 71 12 90 15
97 16 211 38 265 52 33 8 70 17 83 19 134 25 473 135 713 232 308 124 387 185
432 337 49 168 -41 368 -199 440 -124 57 -215 51 -376 -24 -187 -87 -575 -220
-747 -256 -9 -2 -45 -10 -81 -19 -36 -8 -81 -18 -100 -21 -19 -3 -53 -10 -75
-15 -22 -4 -62 -11 -90 -15 -27 -4 -61 -8 -75 -10 -178 -26 -591 -26 -790 0
-14 1 -69 8 -122 15 l-98 12 26 32 c15 17 40 47 58 66 62 70 175 217 244 320
l71 106 138 58 c270 115 567 268 798 410 107 67 335 226 405 283 316 260 641
617 865 949 33 49 63 91 66 94 14 12 154 247 196 330 46 88 48 94 48 178 0 78
-3 94 -33 154 -38 77 -92 130 -171 167 -47 22 -70 26 -141 26 -76 0 -93 -4
-152 -33 -81 -40 -119 -81 -188 -203 -96 -172 -257 -404 -423 -609 -200 -247
-465 -492 -713 -658 -83 -56 -291 -182 -299 -182 -2 0 1 15 5 33 5 17 12 52
15 77 4 24 8 47 10 51 2 3 7 30 10 60 3 30 8 61 10 69 11 41 26 229 30 375 2
129 -2 115 80 255 95 160 231 426 299 585 22 50 47 108 57 130 100 233 193
553 238 820 23 134 23 132 46 335 40 355 14 1053 -44 1185 -37 83 -134 163
-220 183 -60 13 -149 4 -203 -20 -138 -64 -202 -174 -193 -332 3 -44 7 -92 10
-105 23 -117 23 -692 0 -866 -2 -16 -7 -59 -10 -95 -14 -141 -70 -413 -117
-560 -24 -75 -100 -282 -119 -323 -13 -28 -13 -28 -41 48 -67 182 -215 462
-349 660 -58 86 -68 108 -74 160 -13 108 -15 118 -30 204 -8 48 -17 100 -20
116 -32 183 -120 516 -184 690 -155 428 -398 850 -725 1260 -179 225 -280 329
-346 358 -54 25 -160 31 -211 13z"/>
</g>
</svg>
