<svg id="Groupe_2" data-name="Groupe 2" xmlns="http://www.w3.org/2000/svg" xmlns:xlink="http://www.w3.org/1999/xlink" width="1024" height="1024" viewBox="0 0 1024 1024">
  <defs>
    <style>
      .cls-1 {
        filter: url(#filter);
      }

      .cls-2, .cls-3, .cls-4, .cls-5, .cls-6, .cls-7 {
        fill: none;
        stroke: #000;
        fill-rule: evenodd;
      }

      .cls-2, .cls-3, .cls-4, .cls-5, .cls-6, .cls-7, .cls-8 {
        stroke-linecap: round;
      }

      .cls-2 {
        stroke-width: 60px;
      }

      .cls-3 {
        stroke-width: 55px;
      }

      .cls-4 {
        stroke-width: 50px;
      }

      .cls-5 {
        stroke-width: 65px;
      }

      .cls-6 {
        stroke-width: 70px;
      }

      .cls-7 {
        stroke-width: 75px;
      }

      .cls-8 {
        fill: #f7f7f7;
        stroke: #ae0a45;
        stroke-width: 100px;
        filter: url(#filter-2);
      }
    </style>
    <filter id="filter" filterUnits="userSpaceOnUse">
      <feFlood result="flood" flood-color="#ae0a45"/>
      <feComposite result="composite" operator="in" in2="SourceGraphic"/>
      <feBlend result="blend" in2="SourceGraphic"/>
    </filter>
    <filter id="filter-2" x="164.812" y="166.281" width="648.813" height="648.719" filterUnits="userSpaceOnUse">
      <feFlood result="flood" flood-color="#150626"/>
      <feComposite result="composite" operator="in" in2="SourceGraphic"/>
      <feBlend result="blend" in2="SourceGraphic"/>
    </filter>
  </defs>
  <g id="Groupe_1" data-name="Groupe 1" class="cls-1">
    <path id="Forme_1" data-name="Forme 1" class="cls-2" d="M606.792,56.005s58.025,59.235,88.039,136.036c29,74.194,30.013,166.043,30.013,166.043"/>
    <path id="Forme_1_copie" data-name="Forme 1 copie" class="cls-3" d="M330.18,84.531s81.768,13.822,151.2,58.317c67.076,42.984,121.9,116.694,121.9,116.694"/>
    <path id="Forme_1_copie_2" data-name="Forme 1 copie 2" class="cls-4" d="M92.726,276.5S167,239.631,249.333,234.824C328.869,230.18,416.554,257.6,416.554,257.6"/>
    <path id="Forme_1_copie_3" data-name="Forme 1 copie 3" class="cls-3" d="M45,559.674s38.416-73.48,102.2-125.752c61.616-50.5,148.671-79.849,148.671-79.849"/>
    <path id="Forme_1_copie_4" data-name="Forme 1 copie 4" class="cls-2" d="M170.412,843.818s-12.12-82.022,8.749-161.793C199.322,604.961,252.5,530.054,252.5,530.054"/>
    <path id="Forme_1_copie_5" data-name="Forme 1 copie 5" class="cls-5" d="M439.214,970.988s-58.026-59.236-88.04-136.036c-29-74.194-30.013-166.044-30.013-166.044"/>
    <path id="Forme_1_copie_6" data-name="Forme 1 copie 6" class="cls-6" d="M746.886,931.315S665.118,917.494,595.686,873c-67.076-42.985-121.9-116.694-121.9-116.694"/>
    <path id="Forme_1_copie_7" data-name="Forme 1 copie 7" class="cls-7" d="M965.307,713.223S891.021,750.1,808.68,754.9c-79.547,4.642-167.244-22.78-167.244-22.78"/>
    <path id="Forme_1_copie_8" data-name="Forme 1 copie 8" class="cls-6" d="M983,430.041S944.583,503.53,880.793,555.807c-61.626,50.5-148.7,79.856-148.7,79.856"/>
    <path id="Forme_1_copie_9" data-name="Forme 1 copie 9" class="cls-5" d="M851.576,179.907s12.121,82.032-8.754,161.813c-20.165,77.074-73.35,151.99-73.35,151.99"/>
  </g>
  <g style="fill: #f7f7f7; filter: url(#filter-2)">
    <circle id="Ellipse_2_copie" data-name="Ellipse 2 copie" class="cls-8" cx="489.219" cy="490.641" r="274.406" style="stroke: inherit; filter: none; fill: inherit"/>
  </g>
  <use xlink:href="#Ellipse_2_copie" style="stroke: #ae0a45; filter: none; fill: none"/>
</svg>
